<?xml version="1.0" encoding="utf-8"?>
<!-- Generator: Adobe Illustrator 22.0.1, SVG Export Plug-In . SVG Version: 6.00 Build 0)  -->
<svg version="1.1" id="Layer_1" xmlns="http://www.w3.org/2000/svg" xmlns:xlink="http://www.w3.org/1999/xlink" x="0px" y="0px"
	 viewBox="0 0 154.5 154.4" style="enable-background:new 0 0 154.5 154.4;" xml:space="preserve">
<style type="text/css">
	svg {
	padding-top: 50px;
	transform: scale(.5);
	transform-origin: 50% 50%;
	overflow: hidden;
	}

	.st0{fill:#380A15;}

	.st0 {
		animation: rotate 3.3s ease-in-out infinite;

		transform-origin: 50% 50%;
	}

	@keyframes rotate {
	0% {
	/*transform: scaleX(1);*/
	transform: scale(1);
	fill: #380A15;
	}

	50% {
	/*transform: scaleX(-1);*/
	transform: scale(1.05);
	fill: #b2122c;

	100% {
	/*transform: scaleX(1);*/
	transform: scale(1);
	fill: #380A15;
	}
	}
</style>
<path id="badge_x5F_mono_x5F_dark" class="st0" d="M102.6,44.1l-0.8-5.1c6.6,4.2,12,10.1,15.6,17c-1.5-0.2-3-0.4-4.6-0.6
	C110.1,51,106.6,47.2,102.6,44.1z M41.5,55.4c2.7-4.4,6.2-8.2,10.2-11.3l0.8-5.1c-6.6,4.2-12,10.1-15.6,17
	C38.4,55.8,40,55.6,41.5,55.4z M77.2,31l2.5-0.7V18.5h-5v11.7L77.2,31z M122.6,74.7c-0.1-1.3-0.2-2.6-0.4-3.9
	c-0.9,0.8-2.1,1.6-3.4,2.5c0.1,1.3,0.2,2.6,0.2,4c0,4.3-0.6,8.4-1.8,12.2c-0.1,0.2-0.1,0.4-0.2,0.5c-0.1,0.4-0.3,0.9-0.4,1.3
	c-0.1,0.2-0.1,0.3-0.2,0.5c-2.3,6.2-6,11.7-10.8,16.1c-0.4,0.3-0.7,0.7-1.1,1c0.4-0.3,0.7-0.6,1.1-1c-7.5,6.9-17.4,11.1-28.4,11.1
	c-1.3,0-2.6-0.1-3.9-0.2l7.1-11.4l2.1-3.4c0.1-0.2,0.3-0.4,0.4-0.6c1.1-1.4,2.6-2.4,4.3-2.8l10.2-2.4l9.8-2.3
	c4.8-1.1,7.8-6,6.7-10.8l-0.1-0.3c-0.1-0.5-0.4-0.9-0.7-1.3l-0.2-0.2l-4.5-4.6l-0.2-0.2l-0.2-0.2c-0.2-0.2-0.4-0.3-0.6-0.4l0.3-1.9
	c8-2.8,14-6.8,17-11.4l2.9-4.5l-5.2-1.1c-5.9-1.2-12.7-2.1-20.3-2.8l-3.3-20.9c-0.6-3.6-3.6-6.2-7.3-6.2c-0.3,0-0.7,0-1,0.1l-0.3,0
	l-0.3,0.1l-2.3,0.7v0l-10.6,3.2l-2.5-0.7v0l-10.4-3.1L64,29.3l-0.3,0c-0.3,0-0.7-0.1-1-0.1c-1,0-2,0.2-2.9,0.6
	c-0.9,0.4-1.1,1.6-0.4,2.3c0.5,0.4,1,0.9,1.6,1.3l0,0c0,0,0,0,0,0c0,0,0,0,0,0c4.5,3.4,10.1,5.4,16.2,5.4c4.1,0,8-0.9,11.4-2.5
	c-4.1,2-8.7,3.1-13.6,3.1c-5.7,0-11.1-1.5-15.7-4.2l0,0c-1.1-0.6-2.1-1.3-3.1-2.1c-0.4,0.7-0.7,1.6-0.8,2.5l-3.2,20.9
	c-7.6,0.7-14.4,1.6-20.3,2.8l-5.2,1.1l2.9,4.5c0.8,1.3,1.8,2.5,3.1,3.6c-0.3,1.6-0.6,3.3-0.7,4.9c0,0.2,0,0.5-0.1,0.7
	c0,0.2,0,0.5,0,0.7H18.5v5h13.3c0,0.4,0,0.9,0.1,1.3c0,0,0,0.1,0,0.1c1.9,22.5,20.2,40.4,42.8,41.6V136h5v-13.2
	c23.2-1.3,41.8-19.9,43-43.1H136v-5H122.6z M32.7,62.8c2.5,3.6,9.4,6.5,16.7,8.9c7.4,2.4,16.1,3.8,25.4,4c0,0,6.8-3,14.4-9.2
	c0,0,0,0,0,0c0,0,0.1-0.1,0.1-0.1c0.3-0.3,0.7-0.6,1-0.8c0.1-0.1,0.2-0.2,0.3-0.3c0.1-0.1,0.2-0.2,0.4-0.3c0,0,0,0,0,0
	c1.1-0.9,2.1-1.9,3.2-2.9c-2.2,0.4-4.4,0.7-6.8,0.9c-0.3,0-0.6,0.1-0.9,0.1c-1,0.1-2,0.2-3,0.2c-0.2,0-0.4,0-0.6,0
	c-1.1,0.1-2.3,0.1-3.5,0.1c-0.7,0-1.4,0-2.1,0s-1.4,0-2.1,0c-1.8,0-3.6-0.1-5.3-0.2c-5.2-0.4-10.1-1.2-14.6-2.3l0.5-3.4l0.2-1.6l0,0
	c6,1.4,12.7,2.2,19.9,2.3c0,0,0,0,0,0c9.1-5.1,15.9-14,18.2-24.5c0.6,0.5,1,1.3,1.2,2.1L98,53.1l2,12.8c0,0,1.8-2.4,2.3-5.9
	c7.3,0.6,13.9,1.6,19.5,2.7c-3.8,6-14.1,10.8-27.6,13.1c-2.4,0.2-4.8,0.6-7.1,0.9c0,0,0,0,0,0c-3.2,0.3-6.4,0.4-9.8,0.4
	C55.9,77.2,37.9,71.1,32.7,62.8z M57.8,94.8L54,93.9l-0.2,0l-0.8-0.2l-4.4-1L48,92.5c-2.5-0.6-4.2-2.8-4.1-5.3c0,0,0,0,0,0
	c0-0.6,0.3-1.2,0.8-1.7l1.5-1.6l1.3-1.4l1.3,8.7l5,1.2l3.9,0.9l3.7,0.9l6.9,1.6c2.6,0.6,4.9,2,6.6,3.9c1.3-2.1,2.2-4.6,2.2-7.5v-7.5
	c2.7,2.1,5.5,3.1,7.9,3.6c2.9,0.6,5.9,0.1,8.5-1.4l9.8-5.8l-1.9,12.6l-4.9,1.2l-1.6,0.4l-8.7,2.1c-0.4,0.1-0.7,0.2-1.1,0.3
	c-0.7,0.2-1.4,0.5-2,0.9c-0.3,0.2-0.6,0.4-0.9,0.6c-0.3,0.2-0.6,0.4-0.8,0.7c-0.3,0.2-0.5,0.5-0.8,0.8c0,0,0,0,0,0
	c0,0-0.1,0.1-0.1,0.1c-0.2,0.3-0.5,0.5-0.7,0.8c-0.2,0.3-0.4,0.6-0.6,0.8l-2.2,3.5l-0.3-0.5l-1.8-3c-1.6-2.5-4.1-4.3-7-5L57.8,94.8z
	"/>
</svg>
